<svg xmlns="http://www.w3.org/2000/svg" width="800" height="800" viewBox="0 0 800 800">
  <rect width="100%" height="100%" fill="#0d1117" />
  <line x1="117.25" y1="776.00" x2="117.25" y2="761.07" stroke="#ffadad" stroke-width="1.6" stroke-linecap="round" />
  <line x1="117.25" y1="761.07" x2="111.66" y2="747.22" stroke="#da8386" stroke-width="1.6" stroke-linecap="round" />
  <line x1="117.25" y1="761.07" x2="117.25" y2="746.13" stroke="#ffadad" stroke-width="1.6" stroke-linecap="round" />
  <line x1="117.25" y1="746.13" x2="122.85" y2="732.29" stroke="#da8386" stroke-width="1.6" stroke-linecap="round" />
  <line x1="117.25" y1="746.13" x2="117.25" y2="731.20" stroke="#ffadad" stroke-width="1.6" stroke-linecap="round" />
  <line x1="117.25" y1="731.20" x2="111.66" y2="717.35" stroke="#da8386" stroke-width="1.6" stroke-linecap="round" />
  <line x1="111.66" y1="717.35" x2="101.28" y2="706.61" stroke="#b4585e" stroke-width="1.6" stroke-linecap="round" />
  <line x1="111.66" y1="717.35" x2="106.06" y2="703.51" stroke="#da8386" stroke-width="1.6" stroke-linecap="round" />
  <line x1="106.06" y1="703.51" x2="106.06" y2="688.57" stroke="#b4585e" stroke-width="1.6" stroke-linecap="round" />
  <line x1="106.06" y1="703.51" x2="100.47" y2="689.66" stroke="#da8386" stroke-width="1.6" stroke-linecap="round" />
  <line x1="117.25" y1="731.20" x2="117.25" y2="716.27" stroke="#ffadad" stroke-width="1.6" stroke-linecap="round" />
  <line x1="117.25" y1="716.27" x2="122.85" y2="702.42" stroke="#da8386" stroke-width="1.6" stroke-linecap="round" />
  <line x1="117.25" y1="716.27" x2="117.25" y2="701.33" stroke="#ffadad" stroke-width="1.6" stroke-linecap="round" />
  <line x1="117.25" y1="701.33" x2="122.85" y2="687.49" stroke="#da8386" stroke-width="1.6" stroke-linecap="round" />
  <line x1="122.85" y1="687.49" x2="122.85" y2="672.55" stroke="#b4585e" stroke-width="1.6" stroke-linecap="round" />
  <line x1="122.85" y1="687.49" x2="128.44" y2="673.64" stroke="#da8386" stroke-width="1.6" stroke-linecap="round" />
  <line x1="128.44" y1="673.64" x2="138.81" y2="662.90" stroke="#b4585e" stroke-width="1.6" stroke-linecap="round" />
  <line x1="128.44" y1="673.64" x2="134.03" y2="659.80" stroke="#da8386" stroke-width="1.6" stroke-linecap="round" />
  <line x1="117.25" y1="701.33" x2="117.25" y2="686.40" stroke="#ffadad" stroke-width="1.6" stroke-linecap="round" />
  <line x1="117.25" y1="686.40" x2="111.66" y2="672.55" stroke="#da8386" stroke-width="1.6" stroke-linecap="round" />
  <line x1="117.25" y1="686.40" x2="117.25" y2="671.47" stroke="#ffadad" stroke-width="1.6" stroke-linecap="round" />
  <line x1="117.25" y1="671.47" x2="111.66" y2="657.62" stroke="#da8386" stroke-width="1.6" stroke-linecap="round" />
  <line x1="111.66" y1="657.62" x2="101.28" y2="646.88" stroke="#b4585e" stroke-width="1.6" stroke-linecap="round" />
  <line x1="111.66" y1="657.62" x2="106.06" y2="643.77" stroke="#da8386" stroke-width="1.6" stroke-linecap="round" />
  <line x1="106.06" y1="643.77" x2="95.69" y2="633.03" stroke="#b4585e" stroke-width="1.6" stroke-linecap="round" />
  <line x1="95.69" y1="633.03" x2="82.05" y2="626.96" stroke="#8f2e36" stroke-width="1.6" stroke-linecap="round" />
  <line x1="95.69" y1="633.03" x2="85.32" y2="622.29" stroke="#b4585e" stroke-width="1.6" stroke-linecap="round" />
  <line x1="106.06" y1="643.77" x2="100.47" y2="629.93" stroke="#da8386" stroke-width="1.6" stroke-linecap="round" />
  <line x1="100.47" y1="629.93" x2="90.10" y2="619.19" stroke="#b4585e" stroke-width="1.6" stroke-linecap="round" />
  <line x1="100.47" y1="629.93" x2="94.88" y2="616.08" stroke="#da8386" stroke-width="1.6" stroke-linecap="round" />
  <line x1="117.25" y1="671.47" x2="117.25" y2="656.53" stroke="#ffadad" stroke-width="1.6" stroke-linecap="round" />
  <line x1="117.25" y1="656.53" x2="111.66" y2="642.69" stroke="#da8386" stroke-width="1.6" stroke-linecap="round" />
  <line x1="117.25" y1="656.53" x2="117.25" y2="641.60" stroke="#ffadad" stroke-width="1.6" stroke-linecap="round" />
  <line x1="117.25" y1="641.60" x2="122.85" y2="627.75" stroke="#da8386" stroke-width="1.6" stroke-linecap="round" />
  <line x1="117.25" y1="641.60" x2="117.25" y2="626.67" stroke="#ffadad" stroke-width="1.6" stroke-linecap="round" />
  <line x1="117.25" y1="626.67" x2="111.66" y2="612.82" stroke="#da8386" stroke-width="1.6" stroke-linecap="round" />
  <line x1="111.66" y1="612.82" x2="101.28" y2="602.08" stroke="#b4585e" stroke-width="1.6" stroke-linecap="round" />
  <line x1="111.66" y1="612.82" x2="106.06" y2="598.97" stroke="#da8386" stroke-width="1.6" stroke-linecap="round" />
  <line x1="106.06" y1="598.97" x2="106.06" y2="584.04" stroke="#b4585e" stroke-width="1.6" stroke-linecap="round" />
  <line x1="106.06" y1="598.97" x2="100.47" y2="585.13" stroke="#da8386" stroke-width="1.6" stroke-linecap="round" />
  <line x1="117.25" y1="626.67" x2="117.25" y2="611.73" stroke="#ffadad" stroke-width="1.6" stroke-linecap="round" />
  <line x1="117.25" y1="611.73" x2="111.66" y2="597.89" stroke="#da8386" stroke-width="1.6" stroke-linecap="round" />
  <line x1="117.25" y1="611.73" x2="117.25" y2="596.80" stroke="#ffadad" stroke-width="1.6" stroke-linecap="round" />
  <line x1="117.25" y1="596.80" x2="122.85" y2="582.95" stroke="#da8386" stroke-width="1.6" stroke-linecap="round" />
  <line x1="117.25" y1="596.80" x2="117.25" y2="581.87" stroke="#ffadad" stroke-width="1.6" stroke-linecap="round" />
  <line x1="117.25" y1="581.87" x2="122.85" y2="568.02" stroke="#da8386" stroke-width="1.6" stroke-linecap="round" />
  <line x1="122.85" y1="568.02" x2="122.85" y2="553.09" stroke="#b4585e" stroke-width="1.6" stroke-linecap="round" />
  <line x1="122.85" y1="568.02" x2="128.44" y2="554.17" stroke="#da8386" stroke-width="1.6" stroke-linecap="round" />
  <line x1="117.25" y1="581.87" x2="117.25" y2="566.93" stroke="#ffadad" stroke-width="1.6" stroke-linecap="round" />
  <line x1="117.25" y1="566.93" x2="111.66" y2="553.09" stroke="#da8386" stroke-width="1.6" stroke-linecap="round" />
  <line x1="117.25" y1="566.93" x2="117.25" y2="552.00" stroke="#ffadad" stroke-width="1.6" stroke-linecap="round" />
  <line x1="117.25" y1="552.00" x2="122.85" y2="538.15" stroke="#da8386" stroke-width="1.6" stroke-linecap="round" />
  <line x1="122.85" y1="538.15" x2="122.85" y2="523.22" stroke="#b4585e" stroke-width="1.6" stroke-linecap="round" />
  <line x1="122.85" y1="538.15" x2="128.44" y2="524.31" stroke="#da8386" stroke-width="1.6" stroke-linecap="round" />
  <line x1="128.44" y1="524.31" x2="138.81" y2="513.57" stroke="#b4585e" stroke-width="1.6" stroke-linecap="round" />
  <line x1="128.44" y1="524.31" x2="134.03" y2="510.46" stroke="#da8386" stroke-width="1.6" stroke-linecap="round" />
  <line x1="134.03" y1="510.46" x2="134.03" y2="495.53" stroke="#b4585e" stroke-width="1.6" stroke-linecap="round" />
  <line x1="134.03" y1="495.53" x2="128.44" y2="481.68" stroke="#8f2e36" stroke-width="1.6" stroke-linecap="round" />
  <line x1="134.03" y1="495.53" x2="134.03" y2="480.59" stroke="#b4585e" stroke-width="1.6" stroke-linecap="round" />
  <line x1="134.03" y1="510.46" x2="139.63" y2="496.62" stroke="#da8386" stroke-width="1.6" stroke-linecap="round" />
  <line x1="139.63" y1="496.62" x2="139.63" y2="481.68" stroke="#b4585e" stroke-width="1.6" stroke-linecap="round" />
  <line x1="139.63" y1="496.62" x2="145.22" y2="482.77" stroke="#da8386" stroke-width="1.6" stroke-linecap="round" />
  <line x1="117.25" y1="552.00" x2="117.25" y2="537.07" stroke="#ffadad" stroke-width="1.6" stroke-linecap="round" />
  <line x1="117.25" y1="537.07" x2="111.66" y2="523.22" stroke="#da8386" stroke-width="1.6" stroke-linecap="round" />
  <line x1="117.25" y1="537.07" x2="117.25" y2="522.13" stroke="#ffadad" stroke-width="1.6" stroke-linecap="round" />
  <line x1="117.25" y1="522.13" x2="122.85" y2="508.29" stroke="#da8386" stroke-width="1.6" stroke-linecap="round" />
  <line x1="117.25" y1="522.13" x2="117.25" y2="507.20" stroke="#ffadad" stroke-width="1.6" stroke-linecap="round" />
  <line x1="117.25" y1="507.20" x2="111.66" y2="493.35" stroke="#da8386" stroke-width="1.6" stroke-linecap="round" />
  <line x1="111.66" y1="493.35" x2="111.66" y2="478.42" stroke="#b4585e" stroke-width="1.6" stroke-linecap="round" />
  <line x1="111.66" y1="493.35" x2="106.06" y2="479.51" stroke="#da8386" stroke-width="1.6" stroke-linecap="round" />
  <line x1="117.25" y1="507.20" x2="117.25" y2="492.27" stroke="#ffadad" stroke-width="1.6" stroke-linecap="round" />
  <line x1="117.25" y1="492.27" x2="111.66" y2="478.42" stroke="#da8386" stroke-width="1.6" stroke-linecap="round" />
  <line x1="117.25" y1="492.27" x2="117.25" y2="477.33" stroke="#ffadad" stroke-width="1.6" stroke-linecap="round" />
  <line x1="117.25" y1="477.33" x2="122.85" y2="463.49" stroke="#da8386" stroke-width="1.6" stroke-linecap="round" />
  <line x1="122.85" y1="463.49" x2="122.85" y2="448.55" stroke="#b4585e" stroke-width="1.6" stroke-linecap="round" />
  <line x1="122.85" y1="463.49" x2="128.44" y2="449.64" stroke="#da8386" stroke-width="1.6" stroke-linecap="round" />
  <line x1="128.44" y1="449.64" x2="138.81" y2="438.90" stroke="#b4585e" stroke-width="1.6" stroke-linecap="round" />
  <line x1="128.44" y1="449.64" x2="134.03" y2="435.79" stroke="#da8386" stroke-width="1.6" stroke-linecap="round" />
  <line x1="117.25" y1="477.33" x2="117.25" y2="462.40" stroke="#ffadad" stroke-width="1.6" stroke-linecap="round" />
  <line x1="117.25" y1="462.40" x2="111.66" y2="448.55" stroke="#da8386" stroke-width="1.6" stroke-linecap="round" />
  <line x1="117.25" y1="462.40" x2="117.25" y2="447.47" stroke="#ffadad" stroke-width="1.6" stroke-linecap="round" />
  <line x1="117.25" y1="447.47" x2="111.66" y2="433.62" stroke="#da8386" stroke-width="1.6" stroke-linecap="round" />
  <line x1="111.66" y1="433.62" x2="101.28" y2="422.88" stroke="#b4585e" stroke-width="1.6" stroke-linecap="round" />
  <line x1="111.66" y1="433.62" x2="106.06" y2="419.77" stroke="#da8386" stroke-width="1.6" stroke-linecap="round" />
  <line x1="106.06" y1="419.77" x2="95.69" y2="409.03" stroke="#b4585e" stroke-width="1.6" stroke-linecap="round" />
  <line x1="95.69" y1="409.03" x2="90.10" y2="395.19" stroke="#8f2e36" stroke-width="1.6" stroke-linecap="round" />
  <line x1="95.69" y1="409.03" x2="85.32" y2="398.29" stroke="#b4585e" stroke-width="1.6" stroke-linecap="round" />
  <line x1="106.06" y1="419.77" x2="100.47" y2="405.93" stroke="#da8386" stroke-width="1.6" stroke-linecap="round" />
  <line x1="100.47" y1="405.93" x2="100.47" y2="390.99" stroke="#b4585e" stroke-width="1.6" stroke-linecap="round" />
  <line x1="100.47" y1="405.93" x2="94.88" y2="392.08" stroke="#da8386" stroke-width="1.6" stroke-linecap="round" />
  <line x1="94.88" y1="392.08" x2="94.88" y2="377.15" stroke="#b4585e" stroke-width="1.6" stroke-linecap="round" />
  <line x1="94.88" y1="377.15" x2="89.28" y2="363.30" stroke="#8f2e36" stroke-width="1.6" stroke-linecap="round" />
  <line x1="94.88" y1="377.15" x2="94.88" y2="362.22" stroke="#b4585e" stroke-width="1.6" stroke-linecap="round" />
  <line x1="94.88" y1="362.22" x2="100.47" y2="348.37" stroke="#8f2e36" stroke-width="1.6" stroke-linecap="round" />
  <line x1="94.88" y1="362.22" x2="94.88" y2="347.28" stroke="#b4585e" stroke-width="1.6" stroke-linecap="round" />
  <line x1="94.88" y1="392.08" x2="89.28" y2="378.24" stroke="#da8386" stroke-width="1.6" stroke-linecap="round" />
  <line x1="89.28" y1="378.24" x2="89.28" y2="363.30" stroke="#b4585e" stroke-width="1.6" stroke-linecap="round" />
  <line x1="89.28" y1="378.24" x2="83.69" y2="364.39" stroke="#da8386" stroke-width="1.6" stroke-linecap="round" />
  <line x1="83.69" y1="364.39" x2="73.31" y2="353.65" stroke="#b4585e" stroke-width="1.6" stroke-linecap="round" />
  <line x1="73.31" y1="353.65" x2="59.67" y2="347.57" stroke="#8f2e36" stroke-width="1.6" stroke-linecap="round" />
  <line x1="73.31" y1="353.65" x2="62.94" y2="342.91" stroke="#b4585e" stroke-width="1.6" stroke-linecap="round" />
  <line x1="62.94" y1="342.91" x2="57.35" y2="329.06" stroke="#8f2e36" stroke-width="1.6" stroke-linecap="round" />
  <line x1="62.94" y1="342.91" x2="52.57" y2="332.16" stroke="#b4585e" stroke-width="1.6" stroke-linecap="round" />
  <line x1="52.57" y1="332.16" x2="38.92" y2="326.09" stroke="#8f2e36" stroke-width="1.6" stroke-linecap="round" />
  <line x1="38.92" y1="326.09" x2="24.00" y2="325.57" stroke="#6a040f" stroke-width="1.6" stroke-linecap="round" />
  <line x1="38.92" y1="326.09" x2="25.28" y2="320.02" stroke="#8f2e36" stroke-width="1.6" stroke-linecap="round" />
  <line x1="52.57" y1="332.16" x2="42.19" y2="321.42" stroke="#b4585e" stroke-width="1.6" stroke-linecap="round" />
  <line x1="42.19" y1="321.42" x2="36.60" y2="307.58" stroke="#8f2e36" stroke-width="1.6" stroke-linecap="round" />
  <line x1="42.19" y1="321.42" x2="31.82" y2="310.68" stroke="#b4585e" stroke-width="1.6" stroke-linecap="round" />
  <line x1="83.69" y1="364.39" x2="78.09" y2="350.54" stroke="#da8386" stroke-width="1.6" stroke-linecap="round" />
  <line x1="78.09" y1="350.54" x2="67.72" y2="339.80" stroke="#b4585e" stroke-width="1.6" stroke-linecap="round" />
  <line x1="78.09" y1="350.54" x2="72.50" y2="336.70" stroke="#da8386" stroke-width="1.6" stroke-linecap="round" />
  <line x1="72.50" y1="336.70" x2="72.50" y2="321.76" stroke="#b4585e" stroke-width="1.6" stroke-linecap="round" />
  <line x1="72.50" y1="336.70" x2="66.90" y2="322.85" stroke="#da8386" stroke-width="1.6" stroke-linecap="round" />
  <line x1="66.90" y1="322.85" x2="66.90" y2="307.92" stroke="#b4585e" stroke-width="1.6" stroke-linecap="round" />
  <line x1="66.90" y1="307.92" x2="61.31" y2="294.07" stroke="#8f2e36" stroke-width="1.6" stroke-linecap="round" />
  <line x1="66.90" y1="307.92" x2="66.90" y2="292.99" stroke="#b4585e" stroke-width="1.6" stroke-linecap="round" />
  <line x1="66.90" y1="322.85" x2="61.31" y2="309.01" stroke="#da8386" stroke-width="1.6" stroke-linecap="round" />
  <line x1="61.31" y1="309.01" x2="50.94" y2="298.26" stroke="#b4585e" stroke-width="1.6" stroke-linecap="round" />
  <line x1="61.31" y1="309.01" x2="55.72" y2="295.16" stroke="#da8386" stroke-width="1.6" stroke-linecap="round" />
  <line x1="55.72" y1="295.16" x2="55.72" y2="280.23" stroke="#b4585e" stroke-width="1.6" stroke-linecap="round" />
  <line x1="55.72" y1="295.16" x2="50.12" y2="281.31" stroke="#da8386" stroke-width="1.6" stroke-linecap="round" />
  <line x1="117.25" y1="447.47" x2="117.25" y2="432.53" stroke="#ffadad" stroke-width="1.6" stroke-linecap="round" />
  <line x1="117.25" y1="432.53" x2="111.66" y2="418.69" stroke="#da8386" stroke-width="1.6" stroke-linecap="round" />
  <line x1="117.25" y1="432.53" x2="117.25" y2="417.60" stroke="#ffadad" stroke-width="1.6" stroke-linecap="round" />
  <line x1="117.25" y1="417.60" x2="111.66" y2="403.75" stroke="#da8386" stroke-width="1.6" stroke-linecap="round" />
  <line x1="111.66" y1="403.75" x2="111.66" y2="388.82" stroke="#b4585e" stroke-width="1.6" stroke-linecap="round" />
  <line x1="111.66" y1="403.75" x2="106.06" y2="389.91" stroke="#da8386" stroke-width="1.6" stroke-linecap="round" />
  <line x1="117.25" y1="417.60" x2="117.25" y2="402.67" stroke="#ffadad" stroke-width="1.6" stroke-linecap="round" />
  <line x1="117.25" y1="402.67" x2="111.66" y2="388.82" stroke="#da8386" stroke-width="1.6" stroke-linecap="round" />
  <line x1="117.25" y1="402.67" x2="117.25" y2="387.73" stroke="#ffadad" stroke-width="1.6" stroke-linecap="round" />
  <line x1="117.25" y1="387.73" x2="122.85" y2="373.89" stroke="#da8386" stroke-width="1.6" stroke-linecap="round" />
  <line x1="122.85" y1="373.89" x2="133.22" y2="363.14" stroke="#b4585e" stroke-width="1.6" stroke-linecap="round" />
  <line x1="122.85" y1="373.89" x2="128.44" y2="360.04" stroke="#da8386" stroke-width="1.6" stroke-linecap="round" />
  <line x1="117.25" y1="387.73" x2="117.25" y2="372.80" stroke="#ffadad" stroke-width="1.6" stroke-linecap="round" />
  <line x1="117.25" y1="372.80" x2="111.66" y2="358.95" stroke="#da8386" stroke-width="1.6" stroke-linecap="round" />
  <line x1="117.25" y1="372.80" x2="117.25" y2="357.87" stroke="#ffadad" stroke-width="1.6" stroke-linecap="round" />
  <line x1="117.25" y1="357.87" x2="122.85" y2="344.02" stroke="#da8386" stroke-width="1.6" stroke-linecap="round" />
  <line x1="117.25" y1="357.87" x2="117.25" y2="342.93" stroke="#ffadad" stroke-width="1.6" stroke-linecap="round" />
  <line x1="117.25" y1="342.93" x2="111.66" y2="329.09" stroke="#da8386" stroke-width="1.6" stroke-linecap="round" />
  <line x1="111.66" y1="329.09" x2="101.28" y2="318.34" stroke="#b4585e" stroke-width="1.6" stroke-linecap="round" />
  <line x1="111.66" y1="329.09" x2="106.06" y2="315.24" stroke="#da8386" stroke-width="1.6" stroke-linecap="round" />
  <line x1="106.06" y1="315.24" x2="95.69" y2="304.50" stroke="#b4585e" stroke-width="1.6" stroke-linecap="round" />
  <line x1="95.69" y1="304.50" x2="82.05" y2="298.42" stroke="#8f2e36" stroke-width="1.6" stroke-linecap="round" />
  <line x1="95.69" y1="304.50" x2="85.32" y2="293.76" stroke="#b4585e" stroke-width="1.6" stroke-linecap="round" />
  <line x1="106.06" y1="315.24" x2="100.47" y2="301.39" stroke="#da8386" stroke-width="1.6" stroke-linecap="round" />
  <line x1="100.47" y1="301.39" x2="90.10" y2="290.65" stroke="#b4585e" stroke-width="1.6" stroke-linecap="round" />
  <line x1="100.47" y1="301.39" x2="94.88" y2="287.55" stroke="#da8386" stroke-width="1.6" stroke-linecap="round" />
  <line x1="94.88" y1="287.55" x2="94.88" y2="272.62" stroke="#b4585e" stroke-width="1.6" stroke-linecap="round" />
  <line x1="94.88" y1="272.62" x2="89.28" y2="258.77" stroke="#8f2e36" stroke-width="1.6" stroke-linecap="round" />
  <line x1="94.88" y1="272.62" x2="94.88" y2="257.68" stroke="#b4585e" stroke-width="1.6" stroke-linecap="round" />
  <line x1="94.88" y1="287.55" x2="89.28" y2="273.70" stroke="#da8386" stroke-width="1.6" stroke-linecap="round" />
  <line x1="89.28" y1="273.70" x2="89.28" y2="258.77" stroke="#b4585e" stroke-width="1.6" stroke-linecap="round" />
  <line x1="89.28" y1="273.70" x2="83.69" y2="259.86" stroke="#da8386" stroke-width="1.6" stroke-linecap="round" />
  <line x1="117.25" y1="342.93" x2="117.25" y2="328.00" stroke="#ffadad" stroke-width="1.6" stroke-linecap="round" />
  <line x1="117.25" y1="328.00" x2="122.85" y2="314.15" stroke="#da8386" stroke-width="1.6" stroke-linecap="round" />
  <line x1="117.25" y1="328.00" x2="117.25" y2="313.07" stroke="#ffadad" stroke-width="1.6" stroke-linecap="round" />
  <line x1="117.25" y1="313.07" x2="111.66" y2="299.22" stroke="#da8386" stroke-width="1.6" stroke-linecap="round" />
  <line x1="111.66" y1="299.22" x2="101.28" y2="288.48" stroke="#b4585e" stroke-width="1.6" stroke-linecap="round" />
  <line x1="111.66" y1="299.22" x2="106.06" y2="285.37" stroke="#da8386" stroke-width="1.6" stroke-linecap="round" />
  <line x1="117.25" y1="313.07" x2="117.25" y2="298.13" stroke="#ffadad" stroke-width="1.6" stroke-linecap="round" />
  <line x1="117.25" y1="298.13" x2="111.66" y2="284.29" stroke="#da8386" stroke-width="1.6" stroke-linecap="round" />
  <line x1="117.25" y1="298.13" x2="117.25" y2="283.20" stroke="#ffadad" stroke-width="1.6" stroke-linecap="round" />
  <line x1="117.25" y1="283.20" x2="122.85" y2="269.35" stroke="#da8386" stroke-width="1.6" stroke-linecap="round" />
  <line x1="122.85" y1="269.35" x2="122.85" y2="254.42" stroke="#b4585e" stroke-width="1.6" stroke-linecap="round" />
  <line x1="122.85" y1="269.35" x2="128.44" y2="255.51" stroke="#da8386" stroke-width="1.6" stroke-linecap="round" />
  <line x1="128.44" y1="255.51" x2="138.81" y2="244.76" stroke="#b4585e" stroke-width="1.6" stroke-linecap="round" />
  <line x1="128.44" y1="255.51" x2="134.03" y2="241.66" stroke="#da8386" stroke-width="1.6" stroke-linecap="round" />
  <line x1="134.03" y1="241.66" x2="144.41" y2="230.92" stroke="#b4585e" stroke-width="1.6" stroke-linecap="round" />
  <line x1="144.41" y1="230.92" x2="158.05" y2="224.84" stroke="#8f2e36" stroke-width="1.6" stroke-linecap="round" />
  <line x1="144.41" y1="230.92" x2="154.78" y2="220.18" stroke="#b4585e" stroke-width="1.6" stroke-linecap="round" />
  <line x1="134.03" y1="241.66" x2="139.63" y2="227.82" stroke="#da8386" stroke-width="1.6" stroke-linecap="round" />
  <line x1="139.63" y1="227.82" x2="139.63" y2="212.88" stroke="#b4585e" stroke-width="1.6" stroke-linecap="round" />
  <line x1="139.63" y1="227.82" x2="145.22" y2="213.97" stroke="#da8386" stroke-width="1.6" stroke-linecap="round" />
  <line x1="117.25" y1="283.20" x2="117.25" y2="268.27" stroke="#ffadad" stroke-width="1.6" stroke-linecap="round" />
  <line x1="117.25" y1="268.27" x2="122.85" y2="254.42" stroke="#da8386" stroke-width="1.6" stroke-linecap="round" />
  <line x1="117.25" y1="268.27" x2="117.25" y2="253.33" stroke="#ffadad" stroke-width="1.6" stroke-linecap="round" />
  <line x1="117.25" y1="253.33" x2="111.66" y2="239.49" stroke="#da8386" stroke-width="1.6" stroke-linecap="round" />
  <line x1="111.66" y1="239.49" x2="111.66" y2="224.55" stroke="#b4585e" stroke-width="1.6" stroke-linecap="round" />
  <line x1="111.66" y1="239.49" x2="106.06" y2="225.64" stroke="#da8386" stroke-width="1.6" stroke-linecap="round" />
  <line x1="117.25" y1="253.33" x2="117.25" y2="238.40" stroke="#ffadad" stroke-width="1.6" stroke-linecap="round" />
  <line x1="117.25" y1="238.40" x2="111.66" y2="224.55" stroke="#da8386" stroke-width="1.6" stroke-linecap="round" />
  <line x1="117.25" y1="238.40" x2="117.25" y2="223.47" stroke="#ffadad" stroke-width="1.6" stroke-linecap="round" />
  <line x1="117.25" y1="223.47" x2="122.85" y2="209.62" stroke="#da8386" stroke-width="1.6" stroke-linecap="round" />
  <line x1="117.25" y1="223.47" x2="117.25" y2="208.53" stroke="#ffadad" stroke-width="1.6" stroke-linecap="round" />
  <line x1="117.25" y1="208.53" x2="122.85" y2="194.69" stroke="#da8386" stroke-width="1.6" stroke-linecap="round" />
  <line x1="122.85" y1="194.69" x2="122.85" y2="179.75" stroke="#b4585e" stroke-width="1.6" stroke-linecap="round" />
  <line x1="122.85" y1="194.69" x2="128.44" y2="180.84" stroke="#da8386" stroke-width="1.6" stroke-linecap="round" />
  <line x1="128.44" y1="180.84" x2="128.44" y2="165.91" stroke="#b4585e" stroke-width="1.6" stroke-linecap="round" />
  <line x1="128.44" y1="165.91" x2="122.85" y2="152.06" stroke="#8f2e36" stroke-width="1.6" stroke-linecap="round" />
  <line x1="128.44" y1="165.91" x2="128.44" y2="150.97" stroke="#b4585e" stroke-width="1.6" stroke-linecap="round" />
  <line x1="128.44" y1="180.84" x2="134.03" y2="166.99" stroke="#da8386" stroke-width="1.6" stroke-linecap="round" />
  <line x1="134.03" y1="166.99" x2="134.03" y2="152.06" stroke="#b4585e" stroke-width="1.6" stroke-linecap="round" />
  <line x1="134.03" y1="166.99" x2="139.63" y2="153.15" stroke="#da8386" stroke-width="1.6" stroke-linecap="round" />
  <line x1="139.63" y1="153.15" x2="150.00" y2="142.41" stroke="#b4585e" stroke-width="1.6" stroke-linecap="round" />
  <line x1="139.63" y1="153.15" x2="145.22" y2="139.30" stroke="#da8386" stroke-width="1.6" stroke-linecap="round" />
  <line x1="145.22" y1="139.30" x2="145.22" y2="124.37" stroke="#b4585e" stroke-width="1.6" stroke-linecap="round" />
  <line x1="145.22" y1="124.37" x2="139.63" y2="110.52" stroke="#8f2e36" stroke-width="1.6" stroke-linecap="round" />
  <line x1="145.22" y1="124.37" x2="145.22" y2="109.44" stroke="#b4585e" stroke-width="1.6" stroke-linecap="round" />
  <line x1="145.22" y1="109.44" x2="150.82" y2="95.59" stroke="#8f2e36" stroke-width="1.6" stroke-linecap="round" />
  <line x1="150.82" y1="95.59" x2="150.82" y2="80.66" stroke="#6a040f" stroke-width="1.6" stroke-linecap="round" />
  <line x1="150.82" y1="95.59" x2="156.41" y2="81.74" stroke="#8f2e36" stroke-width="1.6" stroke-linecap="round" />
  <line x1="156.41" y1="81.74" x2="166.78" y2="71.00" stroke="#6a040f" stroke-width="1.6" stroke-linecap="round" />
  <line x1="156.41" y1="81.74" x2="162.01" y2="67.90" stroke="#8f2e36" stroke-width="1.6" stroke-linecap="round" />
  <line x1="145.22" y1="109.44" x2="145.22" y2="94.50" stroke="#b4585e" stroke-width="1.6" stroke-linecap="round" />
  <line x1="145.22" y1="94.50" x2="139.63" y2="80.66" stroke="#8f2e36" stroke-width="1.6" stroke-linecap="round" />
  <line x1="145.22" y1="94.50" x2="145.22" y2="79.57" stroke="#b4585e" stroke-width="1.6" stroke-linecap="round" />
  <line x1="145.22" y1="79.57" x2="150.82" y2="65.72" stroke="#8f2e36" stroke-width="1.6" stroke-linecap="round" />
  <line x1="145.22" y1="79.57" x2="145.22" y2="64.64" stroke="#b4585e" stroke-width="1.6" stroke-linecap="round" />
  <line x1="145.22" y1="139.30" x2="150.82" y2="125.46" stroke="#da8386" stroke-width="1.6" stroke-linecap="round" />
  <line x1="150.82" y1="125.46" x2="150.82" y2="110.52" stroke="#b4585e" stroke-width="1.6" stroke-linecap="round" />
  <line x1="150.82" y1="125.46" x2="156.41" y2="111.61" stroke="#da8386" stroke-width="1.6" stroke-linecap="round" />
  <line x1="156.41" y1="111.61" x2="166.78" y2="100.87" stroke="#b4585e" stroke-width="1.6" stroke-linecap="round" />
  <line x1="156.41" y1="111.61" x2="162.01" y2="97.76" stroke="#da8386" stroke-width="1.6" stroke-linecap="round" />
  <line x1="162.01" y1="97.76" x2="162.01" y2="82.83" stroke="#b4585e" stroke-width="1.6" stroke-linecap="round" />
  <line x1="162.01" y1="82.83" x2="167.60" y2="68.99" stroke="#8f2e36" stroke-width="1.6" stroke-linecap="round" />
  <line x1="162.01" y1="82.83" x2="162.01" y2="67.90" stroke="#b4585e" stroke-width="1.6" stroke-linecap="round" />
  <line x1="162.01" y1="97.76" x2="167.60" y2="83.92" stroke="#da8386" stroke-width="1.6" stroke-linecap="round" />
  <line x1="167.60" y1="83.92" x2="167.60" y2="68.99" stroke="#b4585e" stroke-width="1.6" stroke-linecap="round" />
  <line x1="167.60" y1="83.92" x2="173.19" y2="70.07" stroke="#da8386" stroke-width="1.6" stroke-linecap="round" />
  <line x1="173.19" y1="70.07" x2="183.57" y2="59.33" stroke="#b4585e" stroke-width="1.6" stroke-linecap="round" />
  <line x1="173.19" y1="70.07" x2="178.79" y2="56.23" stroke="#da8386" stroke-width="1.6" stroke-linecap="round" />
  <line x1="178.79" y1="56.23" x2="189.16" y2="45.48" stroke="#b4585e" stroke-width="1.6" stroke-linecap="round" />
  <line x1="189.16" y1="45.48" x2="194.76" y2="31.64" stroke="#8f2e36" stroke-width="1.6" stroke-linecap="round" />
  <line x1="189.16" y1="45.48" x2="199.53" y2="34.74" stroke="#b4585e" stroke-width="1.6" stroke-linecap="round" />
  <line x1="199.53" y1="34.74" x2="213.18" y2="28.67" stroke="#8f2e36" stroke-width="1.6" stroke-linecap="round" />
  <line x1="199.53" y1="34.74" x2="209.91" y2="24.00" stroke="#b4585e" stroke-width="1.6" stroke-linecap="round" />
  <line x1="178.79" y1="56.23" x2="184.38" y2="42.38" stroke="#da8386" stroke-width="1.6" stroke-linecap="round" />
  <line x1="184.38" y1="42.38" x2="184.38" y2="27.45" stroke="#b4585e" stroke-width="1.6" stroke-linecap="round" />
  <line x1="184.38" y1="42.38" x2="189.98" y2="28.53" stroke="#da8386" stroke-width="1.6" stroke-linecap="round" />
  <line x1="117.25" y1="208.53" x2="117.25" y2="193.60" stroke="#ffadad" stroke-width="1.6" stroke-linecap="round" />
  <line x1="117.25" y1="193.60" x2="122.85" y2="179.75" stroke="#da8386" stroke-width="1.6" stroke-linecap="round" />
  <line x1="117.25" y1="193.60" x2="117.25" y2="178.67" stroke="#ffadad" stroke-width="1.6" stroke-linecap="round" />
  <line x1="117.25" y1="178.67" x2="122.85" y2="164.82" stroke="#da8386" stroke-width="1.6" stroke-linecap="round" />
  <line x1="122.85" y1="164.82" x2="122.85" y2="149.89" stroke="#b4585e" stroke-width="1.6" stroke-linecap="round" />
  <line x1="122.85" y1="164.82" x2="128.44" y2="150.97" stroke="#da8386" stroke-width="1.6" stroke-linecap="round" />
  <line x1="128.44" y1="150.97" x2="138.81" y2="140.23" stroke="#b4585e" stroke-width="1.6" stroke-linecap="round" />
  <line x1="128.44" y1="150.97" x2="134.03" y2="137.13" stroke="#da8386" stroke-width="1.6" stroke-linecap="round" />
  <line x1="117.25" y1="178.67" x2="117.25" y2="163.73" stroke="#ffadad" stroke-width="1.6" stroke-linecap="round" />
  <line x1="117.25" y1="163.73" x2="111.66" y2="149.89" stroke="#da8386" stroke-width="1.6" stroke-linecap="round" />
  <line x1="117.25" y1="163.73" x2="117.25" y2="148.80" stroke="#ffadad" stroke-width="1.6" stroke-linecap="round" />
  <line x1="117.25" y1="148.80" x2="111.66" y2="134.95" stroke="#da8386" stroke-width="1.6" stroke-linecap="round" />
  <line x1="111.66" y1="134.95" x2="101.28" y2="124.21" stroke="#b4585e" stroke-width="1.6" stroke-linecap="round" />
  <line x1="111.66" y1="134.95" x2="106.06" y2="121.11" stroke="#da8386" stroke-width="1.6" stroke-linecap="round" />
  <line x1="106.06" y1="121.11" x2="95.69" y2="110.36" stroke="#b4585e" stroke-width="1.6" stroke-linecap="round" />
  <line x1="95.69" y1="110.36" x2="90.10" y2="96.52" stroke="#8f2e36" stroke-width="1.6" stroke-linecap="round" />
  <line x1="95.69" y1="110.36" x2="85.32" y2="99.62" stroke="#b4585e" stroke-width="1.6" stroke-linecap="round" />
  <line x1="106.06" y1="121.11" x2="100.47" y2="107.26" stroke="#da8386" stroke-width="1.6" stroke-linecap="round" />
  <line x1="100.47" y1="107.26" x2="100.47" y2="92.33" stroke="#b4585e" stroke-width="1.6" stroke-linecap="round" />
  <line x1="100.47" y1="107.26" x2="94.88" y2="93.41" stroke="#da8386" stroke-width="1.6" stroke-linecap="round" />
  <line x1="94.88" y1="93.41" x2="94.88" y2="78.48" stroke="#b4585e" stroke-width="1.6" stroke-linecap="round" />
  <line x1="94.88" y1="78.48" x2="100.47" y2="64.64" stroke="#8f2e36" stroke-width="1.6" stroke-linecap="round" />
  <line x1="94.88" y1="78.48" x2="94.88" y2="63.55" stroke="#b4585e" stroke-width="1.6" stroke-linecap="round" />
  <line x1="94.88" y1="93.41" x2="89.28" y2="79.57" stroke="#da8386" stroke-width="1.6" stroke-linecap="round" />
  <line x1="89.28" y1="79.57" x2="78.91" y2="68.83" stroke="#b4585e" stroke-width="1.6" stroke-linecap="round" />
  <line x1="89.28" y1="79.57" x2="83.69" y2="65.72" stroke="#da8386" stroke-width="1.6" stroke-linecap="round" />
  <line x1="83.69" y1="65.72" x2="83.69" y2="50.79" stroke="#b4585e" stroke-width="1.6" stroke-linecap="round" />
  <line x1="83.69" y1="65.72" x2="78.09" y2="51.88" stroke="#da8386" stroke-width="1.6" stroke-linecap="round" />
  <line x1="117.25" y1="148.80" x2="117.25" y2="133.87" stroke="#ffadad" stroke-width="1.6" stroke-linecap="round" />
  <line x1="117.25" y1="133.87" x2="111.66" y2="120.02" stroke="#da8386" stroke-width="1.6" stroke-linecap="round" />
  <line x1="117.25" y1="133.87" x2="117.25" y2="118.93" stroke="#ffadad" stroke-width="1.6" stroke-linecap="round" />
  <line x1="117.25" y1="118.93" x2="111.66" y2="105.09" stroke="#da8386" stroke-width="1.6" stroke-linecap="round" />
  <line x1="111.66" y1="105.09" x2="101.28" y2="94.34" stroke="#b4585e" stroke-width="1.6" stroke-linecap="round" />
  <line x1="111.66" y1="105.09" x2="106.06" y2="91.24" stroke="#da8386" stroke-width="1.6" stroke-linecap="round" />
  <line x1="117.25" y1="118.93" x2="117.25" y2="104.00" stroke="#ffadad" stroke-width="1.6" stroke-linecap="round" />
  <line x1="117.25" y1="104.00" x2="122.85" y2="90.15" stroke="#da8386" stroke-width="1.6" stroke-linecap="round" />
  <line x1="117.25" y1="104.00" x2="117.25" y2="89.07" stroke="#ffadad" stroke-width="1.6" stroke-linecap="round" />
  <line x1="117.25" y1="89.07" x2="122.85" y2="75.22" stroke="#da8386" stroke-width="1.6" stroke-linecap="round" />
  <line x1="122.85" y1="75.22" x2="133.22" y2="64.48" stroke="#b4585e" stroke-width="1.6" stroke-linecap="round" />
  <line x1="122.85" y1="75.22" x2="128.44" y2="61.37" stroke="#da8386" stroke-width="1.6" stroke-linecap="round" />
  <line x1="117.25" y1="89.07" x2="117.25" y2="74.13" stroke="#ffadad" stroke-width="1.6" stroke-linecap="round" />
  <line x1="117.25" y1="74.13" x2="111.66" y2="60.29" stroke="#da8386" stroke-width="1.6" stroke-linecap="round" />
  <line x1="117.25" y1="74.13" x2="117.25" y2="59.20" stroke="#ffadad" stroke-width="1.6" stroke-linecap="round" />
  <line x1="117.25" y1="59.20" x2="122.85" y2="45.35" stroke="#da8386" stroke-width="1.6" stroke-linecap="round" />
  <line x1="117.25" y1="59.20" x2="117.25" y2="44.27" stroke="#ffadad" stroke-width="1.6" stroke-linecap="round" />
</svg>
